<svg width="1920" height="220" xmlns="http://www.w3.org/2000/svg" clip-rule="evenodd">

 <g>
  <title>background</title>
  <rect fill="none" id="canvas_background" height="602" width="802" y="-1" x="-1"/>
 </g>
 <g>
  <title>Layer 1</title>
  <g id="svg_1" transform="matrix(1.6,0,0,1.83334,0,-0.000601561) ">
   <path id="svg_2" fill="#ffffff" fill-rule="nonzero" d="m0,120l0,-3.516c36.854,-29.437 86.91,-46.548 133.27,-60.465c44.843,-13.462 90.168,-27.014 136.897,-29.941c30.565,-1.915 61.212,0.757 91.835,1.027c114.842,1.011 228.392,-31.731 343.121,-26.548c38.401,1.734 76.47,7.71 114.445,13.676c83.473,13.115 166.946,26.228 250.422,39.342c33.88,5.324 68.99,11.111 97.45,30.263c12.26,8.251 22.77,18.656 32.56,29.789l0,6.373l-1200,0z"/>
  </g>
 </g>
</svg>