<?xml version="1.0" encoding="UTF-8" standalone="no"?>
<!DOCTYPE svg PUBLIC "-//W3C//DTD SVG 1.1//EN" "http://www.w3.org/Graphics/SVG/1.1/DTD/svg11.dtd">
<svg width="100%" height="100%" viewBox="0 0 200 3000" version="1.1" xmlns="http://www.w3.org/2000/svg" xmlns:xlink="http://www.w3.org/1999/xlink" xml:space="preserve" xmlns:serif="http://www.serif.com/" style="fill-rule:evenodd;clip-rule:evenodd;stroke-linejoin:round;stroke-miterlimit:2;">
    <path d="M83.31,9.09C90.49,111.45 97.68,213.81 104.86,316.17C106.22,335.62 105.17,358.56 91.55,374.15C84.25,382.51 65.95,386.7 62.27,372.08C59.43,360.8 72.24,349.82 81.57,346.49C107.66,337.18 119.54,370.06 121.56,390.01C123.75,411.67 121.68,433.97 121.12,455.68C115.75,663.95 110.37,872.21 105,1080.48C102.33,1183.86 99.28,1287.25 97.12,1390.64C94.98,1493.33 95.45,1595.98 104.9,1698.33C114.34,1800.5 128.91,1902.05 133.42,2004.65C137.84,2105.35 136.21,2206.22 131.91,2306.89C123.33,2507.93 103.72,2708.45 99.67,2909.69C99.18,2933.85 98.95,2958.02 98.97,2982.19C98.97,2983.54 101.07,2983.54 101.07,2982.19C100.94,2764.38 122.86,2547.39 132.98,2329.97C138.11,2219.72 140.36,2109.21 135.26,1998.92C130.1,1887.49 112.92,1777.25 104.24,1666.13C95.48,1553.98 97.8,1441.41 100.68,1329.07C103.56,1216.6 106.48,1104.12 109.39,991.65C112.32,878.14 115.25,764.63 118.18,651.12C119.63,594.86 121.08,538.6 122.54,482.34C123.23,455.71 124.97,428.87 124.36,402.23C124.01,386.74 122.26,369.59 112.96,356.61C99.36,337.63 70.24,339.27 61.33,362.47C58.09,370.9 61.14,379.37 69.74,382.87C79.24,386.74 88.05,381.85 94.02,374.41C102.59,363.73 106.51,348.88 107.53,335.46C109.37,311.03 104.81,285.02 103.09,260.61C99.12,204.07 95.15,147.53 91.19,90.98C89.27,63.68 87.36,36.39 85.44,9.09C85.32,7.75 83.22,7.73 83.31,9.09Z" style="fill:rgb(26,26,26);fill-rule:nonzero;"/>
</svg>
