<?xml version="1.0" encoding="UTF-8" standalone="no"?>
<!DOCTYPE svg PUBLIC "-//W3C//DTD SVG 1.1//EN" "http://www.w3.org/Graphics/SVG/1.1/DTD/svg11.dtd">
<svg width="100%" height="100%" viewBox="0 0 120 120" version="1.1" xmlns="http://www.w3.org/2000/svg" xmlns:xlink="http://www.w3.org/1999/xlink" xml:space="preserve" xmlns:serif="http://www.serif.com/" style="fill-rule:evenodd;clip-rule:evenodd;stroke-linejoin:round;stroke-miterlimit:2;">
    <path d="M48.761,102.157L53.146,95.103L55.905,90.772L57.739,87.065L58.986,83.291L58.756,80.076L57.674,77.189L49.865,75.318L48.29,76.828L46.78,79.715L46.157,82.471L45.862,86.376L46.321,90.006L47.207,93.463L47.699,97.466L48.027,100.287L48.761,102.157" style="fill:rgb(255,190,134);"/>
    <g transform="matrix(1,0,0,1,1.03022,-3.66813)">
        <path d="M47.8,104.762C48.731,102.834 49.923,100.948 50.527,100.122C54.176,95.132 59.846,87.687 56.106,81.339C55.828,80.868 56.238,79.512 56.845,80.153C59.594,83.053 58.525,88.385 56.97,91.646C53.814,98.259 48.066,103.359 47.098,110.944C47.035,111.436 46.509,112.021 46.058,111.55C45.997,111.486 45.936,111.424 45.875,111.359C45.577,111.047 45.69,110.418 45.954,110.03C46.671,106.735 46.496,102.907 46.081,99.578C45.671,96.284 44.151,93.145 44.083,89.809C44.015,86.426 45.479,80.245 48.807,78.498C49.324,78.227 49.277,79.205 48.972,79.426C45.161,82.201 45.382,89.03 45.744,92.94C45.972,95.398 46.799,97.619 47.333,99.995C47.675,101.514 47.821,103.134 47.8,104.762ZM51.58,84.243C50.17,86.816 50.214,90.487 49.791,93.351C49.75,93.626 50.036,93.837 50.152,93.502C50.648,92.063 50.608,90.496 50.867,89.005C51.138,87.458 51.79,85.892 51.776,84.323C51.774,84.208 51.652,84.11 51.58,84.243ZM48.61,82.743C48.217,83.624 48.227,84.691 48.081,85.638C47.951,86.473 47.582,87.397 47.796,88.232C47.832,88.369 47.96,88.486 48.086,88.349C48.72,87.657 48.759,86.477 48.904,85.589C49.055,84.655 49.293,83.584 49.009,82.666C48.928,82.406 48.677,82.592 48.61,82.743ZM54.431,85.47C54.103,86.099 53.734,86.952 54.081,87.647C54.177,87.839 54.362,87.745 54.425,87.58C54.637,87.025 54.642,86.427 54.851,85.869C54.962,85.571 54.663,85.026 54.431,85.47Z" style="fill:rgb(26,26,26);fill-rule:nonzero;"/>
    </g>
    <path d="M47.641,69.842L46.617,60.63L47.641,46.612L49.466,35.878L52.806,24.583L56.143,15.932L61.076,9.63L64.619,7.346L68.557,5.299L70.84,8.843L74.568,15.536L76.221,23.306L75.722,36.115L74.541,45.039L73.518,50.21L71.052,57.14L67.008,64.175L63.543,69.162L60.603,72.915L55.905,72.321L51.364,71.262L47.641,69.842" style="fill:rgb(255,232,210);"/>
    <path d="M63.173,69.635L66.599,72.915L68.834,77.028L69.913,81.294L70.254,85.494L72.144,81.805L73.916,73.321L73.277,65.545L72.275,60.361L71.052,57.506L63.173,69.635" style="fill:rgb(228,76,100);"/>
    <path d="M58.121,72.915L50.972,71.112L50.063,75.398L57.47,77.105L58.121,72.915" style="fill:rgb(85,85,85);"/>
    <path d="M46.617,67.747L41.12,71.5L38.496,75.318L36.343,78.719L36.474,74.356L37.551,67.038L39.414,61.841L43.089,54.15L44.821,52.342L46.948,51.762L47.641,67.537L46.617,67.747" style="fill:rgb(228,76,100);"/>
    <path d="M61.524,31.86L59.172,29.235L58.475,26.209L58.986,22.869L61.166,20.929L63.233,20.146L66.776,20.929L68.834,22.804L70.254,25.232L69.861,28.447L68.286,31.489L64.972,32.844L61.524,31.86" style="fill:rgb(171,251,253);"/>
    <g transform="matrix(0.976956,0.213442,-0.213442,0.976956,13.8192,-11.126)">
        <path d="M54.678,5.18C54.841,4.999 55.048,4.896 55.28,4.744C55.531,4.581 55.83,4.299 56.137,4.177C56.272,4.061 56.423,3.962 56.586,3.879C56.778,3.781 56.942,3.781 57.077,3.846C57.162,3.844 57.253,3.883 57.344,3.976C61.806,8.501 65.897,11.554 68.077,17.715C70.058,23.316 70.537,29.408 71.248,35.271C72.077,42.107 72.056,48.598 70.904,54.862C70.973,54.853 71.055,54.893 71.146,55.004C77.627,62.977 79.14,74.34 75.869,83.908C75.566,84.793 74.779,84.151 74.77,83.486C74.723,80.028 73.291,76.412 71.139,73.671C69.575,71.678 67.582,71.056 65.586,69.953C65.061,70.929 64.499,71.901 63.9,72.869C63.842,72.964 63.782,73.036 63.723,73.087C63.628,73.181 63.509,73.248 63.367,73.275C62.861,73.367 62.339,73.427 61.808,73.466C61.893,74.015 61.922,74.573 61.87,75.125C61.819,75.665 61.883,76.788 61.56,77.23C60.826,78.235 58.204,77.787 57.151,77.781C56.077,77.775 53.873,78.268 53.317,77.035C53.081,76.51 53.283,75.967 53.344,75.431C53.423,74.732 53.306,74.095 53.305,73.445C52.688,73.376 52.083,73.263 51.516,73.085C51.302,73.158 51.076,73.19 50.851,73.165C50.565,73.234 50.341,73.157 50.167,72.901C50.15,72.876 50.133,72.85 50.117,72.825C49.98,72.743 49.852,72.57 49.747,72.279C49.619,71.922 49.493,71.564 49.369,71.206C45.479,74.532 42.653,78.454 41.769,83.616C41.602,84.588 40.618,84.626 40.413,83.649C39.064,77.241 38.922,70.759 40.302,64.337C40.939,61.377 41.683,55.249 45.019,54.07C44.008,47.678 43.682,41.192 44.16,34.646C44.903,24.486 45.296,11.328 54.678,5.18ZM70.735,55.737C69.896,59.896 68.549,63.955 66.61,67.951C67.006,68.036 67.372,68.201 67.756,68.359C68.072,68.489 68.371,68.613 68.648,68.786C72.491,69.899 74.924,75.562 75.687,80.12C77.701,71.492 75.162,63.482 70.735,55.737ZM45.187,55.093C41.976,57.041 41.232,65.048 40.859,68.174C40.402,72 40.532,75.81 41.106,79.584C42.316,75.294 44.745,71.633 48.684,69.174C47.175,64.54 45.993,59.843 45.187,55.093ZM60.652,73.521C59.346,73.555 58.018,73.509 56.77,73.534C56.026,73.548 55.22,73.563 54.41,73.528C54.47,74.357 54.137,75.236 54.204,76.065C54.958,76.268 56.155,76.107 56.829,76.111C57.765,76.118 58.701,76.101 59.637,76.116C59.841,76.119 60.902,76.344 61.043,76.237C61.146,76.16 60.939,75.647 60.857,75.149C60.768,74.609 60.702,74.066 60.652,73.521ZM57.355,5.86C57.099,5.738 56.833,5.628 56.57,5.684C45.983,12.595 46.107,25.655 45.352,36.995C44.598,48.311 47.294,60.337 51.132,70.982C51.164,71.07 51.185,71.163 51.197,71.258C51.199,71.267 51.201,71.276 51.203,71.285C52.972,71.056 54.968,71.329 56.716,71.338L56.754,71.338C56.153,59.847 56.244,47.982 56.696,36.501C56.724,35.802 57.419,35.772 57.45,36.483C57.955,47.963 58.097,59.831 57.548,71.326C59.365,71.272 61.253,71.06 63.03,71.242C65.534,65.284 68.468,59.65 70.022,53.328C71.635,46.765 70.713,40.613 69.765,34.025C68.989,28.627 68.528,23.156 66.642,17.998C64.698,12.678 61.636,9.283 57.355,5.86ZM55.406,18.552C55.512,18.531 55.621,18.513 55.731,18.499C55.865,18.481 55.981,18.523 56.076,18.605C57.954,18.876 60.189,20.137 61.625,21.022C63.024,21.884 63.669,22.709 63.877,24.359C64.3,27.74 63.234,32.132 59.508,33.118C55.843,34.087 51.036,30.685 50.592,26.951C50.235,23.944 51.658,19.962 54.592,18.794C54.711,18.666 54.874,18.581 55.088,18.564C55.191,18.555 55.298,18.552 55.406,18.552ZM54.789,20.841C52.548,22.173 51.434,25.563 52.686,27.923C53.716,29.867 57.164,31.368 59.229,30.66C61.952,29.728 63.573,25.646 61.787,23.24C60.498,21.505 57.367,19.743 55.353,20.899C55.145,21.018 54.951,20.978 54.789,20.841Z" style="fill:rgb(26,26,26);fill-rule:nonzero;"/>
    </g>
</svg>
